<?xml version="1.0" encoding="utf-8"?>
<!-- Uploaded to: SVG Repo, www.svgrepo.com, Generator: SVG Repo Mixer Tools -->
<svg fill="#000000" height="800px" width="800px" version="1.1" id="Layer_1" xmlns="http://www.w3.org/2000/svg" xmlns:xlink="http://www.w3.org/1999/xlink" 
	 viewBox="0 0 64 64" enable-background="new 0 0 64 64" xml:space="preserve">
<path id="Glass_2_" d="M43.5497971,62H33.0445023V44.1422997C42.209198,43.2927017,49.5,31.3507996,49.5,16.7891006
	c0-5.8770008-1.1645012-11.4834003-3.3672028-16.2110004C45.9687996,0.2256,45.6152992,0,45.2265968,0H18.7735004
	c-0.3886986,0-0.7421989,0.2256-0.9062996,0.5781c-2.2025995,4.7275996-3.3671999,10.3339996-3.3671999,16.2110004
	c0,14.5616989,7.290801,26.5036011,16.4556007,27.353199V62H20.450201c-0.5522003,0-1,0.4482002-1,1s0.4477997,1,1,1h23.099596
	c0.5523033,0,1-0.4482002,1-1S44.1021004,62,43.5497971,62z M19.4185009,2h25.1630993
	c1.7882996,4.0762,2.7983971,8.9863005,2.8985977,13.9785004H16.5198021C16.6200008,10.9863005,17.6301022,6.0762,19.4185009,2z
	 M16.5191021,18.0214996H47.480999c-0.3908958,13.3404007-7.0881996,24.0110016-15.3002968,24.1661987
	c-0.0608025-0.0108986-0.1166-0.0362968-0.1807022-0.0362968c-0.0640984,0-0.1198978,0.0253983-0.1805992,0.0362968
	C23.6072006,42.0325012,16.9099007,31.3619003,16.5191021,18.0214996z"/>
</svg>