<!DOCTYPE svg PUBLIC "-//W3C//DTD SVG 1.1//EN" "http://www.w3.org/Graphics/SVG/1.1/DTD/svg11.dtd">
<!-- Uploaded to: SVG Repo, www.svgrepo.com, Transformed by: SVG Repo Mixer Tools -->
<svg height="800px" width="800px" version="1.1" id="Layer_1" xmlns="http://www.w3.org/2000/svg" xmlns:xlink="http://www.w3.org/1999/xlink" viewBox="0 0 512.001 512.001" xml:space="preserve" fill="#000000">
<g id="SVGRepo_bgCarrier" stroke-width="0"/>
<g id="SVGRepo_tracerCarrier" stroke-linecap="round" stroke-linejoin="round"/>
<g id="SVGRepo_iconCarrier"> <g> <path style="fill:#ffffff;" d="M345.512,502.269H55.107l0,0c0-21.565,17.481-39.046,39.046-39.046h212.314 C328.031,463.222,345.512,480.703,345.512,502.269L345.512,502.269z"/> <path style="fill:#ffffff;" d="M354.469,95.13H45.911c-9.101,0-14.026,10.657-8.131,17.59L180.788,280.86v182.435h39.046V280.86 l142.713-168.076C368.522,105.868,363.609,95.13,354.469,95.13z"/> </g> <path style="fill:#a6a6a6;" d="M179.385,186.774c32.525-12.928,27.054-19.822,53.963-27.798c37.1-10.999,61.572-2.175,88.931,1.196 L228.5,270.436c-14.689,17.269-41.315,17.374-56.138,0.22l-56.042-65.866C143.963,201.146,166.968,191.711,179.385,186.774z"/> <path style="fill:#cfcfcf;" d="M221.286,186.774c-32.525-12.928-27.054-19.822-53.964-27.798 c-37.1-10.999-61.572-2.175-88.931,1.196l93.78,110.264c14.689,17.269,41.315,17.374,56.138,0.22l56.059-65.942 C256.725,201.07,233.704,191.711,221.286,186.774z"/> <g> <path style="fill:#000000;" d="M219.811,358.176c-5.147,0-9.317,4.172-9.317,9.317v7.764c0,5.145,4.17,9.317,9.317,9.317 s9.317-4.172,9.317-9.317v-7.764C229.128,362.348,224.957,358.176,219.811,358.176z"/> <path style="fill:#000000;" d="M498.407,7.876c-0.796-5.083-5.567-8.555-10.645-7.763L386.486,15.976 c-2.483,0.389-4.704,1.764-6.158,3.814L333.2,86.228H22.798c-3.632,0-6.933,2.111-8.457,5.408s-0.994,7.179,1.36,9.946 l155.748,183.12V454.32H94.131c-26.668,0-48.364,21.696-48.364,48.364c0,5.145,4.17,9.317,9.317,9.317H345.49 c5.147,0,9.317-4.172,9.317-9.317c0-26.668-21.696-48.364-48.364-48.364h-77.316v-31.234c0-5.145-4.17-9.317-9.317-9.317 s-9.317,4.172-9.317,9.317v31.234h-20.412V281.274c0-2.211-0.788-4.352-2.22-6.036L42.952,104.862h314.461L212.761,272.255 c-1.463,1.692-2.267,3.855-2.267,6.092v60.886c0,5.145,4.17,9.317,9.317,9.317c5.147,0,9.317-4.172,9.317-9.317v-57.418 l155.701-180.178c2.384-2.758,2.939-6.652,1.424-9.968c-1.516-3.316-4.827-5.441-8.472-5.441h-21.732l37.205-52.451l97.392-15.255 C495.728,17.726,499.204,12.959,498.407,7.876z M334.679,493.366H65.896c3.918-11.844,15.095-20.413,28.235-20.413h212.313 C319.584,472.953,330.761,481.522,334.679,493.366z"/> </g> <g> <path style="fill:#FFFFFF;" d="M184.995,232.086c-3.963,3.282-9.835,2.732-13.118-1.231l-19.603-23.731 c-3.283-3.963-2.732-9.836,1.231-13.118c3.963-3.282,9.835-2.732,13.118,1.231l19.603,23.731 C189.509,222.931,188.957,228.804,184.995,232.086z"/> <path style="fill:#FFFFFF;" d="M143.68,182.147c-3.963,3.282-9.835,2.732-13.118-1.231l-1.119-1.333 c-3.283-3.963-2.732-9.836,1.231-13.118s9.835-2.732,13.118,1.231l1.119,1.333C148.195,172.991,147.643,178.864,143.68,182.147z"/> </g> </g>
</svg>